<svg width="183" height="149" viewBox="0 0 183 149" fill="none" xmlns="http://www.w3.org/2000/svg">
<path d="M20.281 52.3699C19.376 51.9944 19.0155 50.4923 20.1646 49.929C20.8572 49.5915 21.5785 49.3163 22.32 49.1067C22.4505 48.9771 22.6065 48.8761 22.7781 48.81C26.6969 47.255 30.7324 46.0119 34.847 45.0925C36.9611 44.6231 39.1015 44.2363 41.2494 43.966C42.6576 43.7857 44.1108 43.6092 45.2373 44.6456C46.2249 45.5544 46.4878 46.925 46.6943 48.1904C47.051 50.3684 47.359 52.5539 47.6594 54.7393C48.1851 58.567 48.6382 62.4022 49.0187 66.2449C54.1557 66.2637 59.8371 65.3775 63.7237 64.5702C64.2068 58.1289 64.7989 51.699 65.4998 45.2802C66.6264 34.9725 67.6515 24.4282 69.8107 14.2744C70.6819 10.1739 72.2965 6.21599 75.6123 3.48979C78.6539 0.985142 82.5292 0.279184 86.1979 1.78873C90.8017 3.66628 94.5342 8.0297 98.064 11.3755C102.48 15.5662 106.793 19.8633 111.004 24.2667C117.313 30.8682 122.269 36.8388 127.204 42.9596C130.422 41.7016 134.338 40.2296 137.019 39.4261C141.901 37.9578 146.726 36.5947 151.841 36.9777C156.651 37.3532 159.835 41.4838 161.979 45.4755C164.11 49.3958 166.041 53.4125 167.774 57.5256C168.945 57.9568 169.999 58.6579 170.849 59.5721C172.562 59.3053 174.293 59.1647 176.027 59.1516C177.492 59.1516 178.656 59.5271 179.587 60.7174C179.763 60.9706 179.84 61.2789 179.805 61.5849H180.18C180.926 61.5647 181.555 62.1333 181.611 62.8766C181.661 63.2996 181.473 63.7154 181.123 63.9581C181.542 64.1381 181.873 64.4751 182.047 64.8969C182.321 65.5014 182.325 66.673 181.356 67.0823C177.101 68.8773 172.655 70.1765 168.307 71.7236C166.076 72.5197 163.091 73.0154 161.172 72.2644C159.253 71.5133 157.042 68.5468 156.343 67.3602C153.846 63.2296 151.732 58.8624 149.208 54.7393C146.324 56.2414 143.426 57.7096 140.542 59.2154C141.293 60.0866 142.044 60.9728 142.84 61.8703C144.492 63.7478 145.949 65.8018 146.482 68.0774C147.391 71.9865 144.721 74.9455 141.424 76.5527C137.924 78.2612 134.072 79.3728 130.354 80.642L133.88 87.3711C135.465 90.4015 136.666 95.1179 139.411 96.541C142.156 97.9642 146.546 97.1419 149.55 96.7701C153.305 96.3045 155.16 95.7938 158.904 95.3056C159.339 95.2331 159.778 95.4172 160.031 95.7788C160.361 95.8338 160.65 96.0334 160.819 96.3232C164.499 102.126 168.178 107.929 171.855 113.732C172.194 114.212 172.174 114.859 171.807 115.318C171.44 115.777 170.814 115.938 170.271 115.715L164.777 113.612C163.095 112.97 161.311 112.14 159.52 112.838C159.419 112.89 159.311 112.929 159.201 112.955C153.546 114.291 150.335 115.696 144.034 116.221C137.733 116.747 128.585 114.858 124.928 111.884C121.117 108.786 118.03 103.999 115.728 99.7329C113.72 95.9936 111.939 92.1363 110.396 88.1822C106.821 89.519 103.231 90.8108 99.6074 92.0049V92.0049C95.8523 98.3022 92.6079 103.646 88.7927 110.57C87.7037 112.545 86.7687 116.33 87.4484 119.481C88.128 122.631 92.1159 138.41 95.3791 147.077C95.5128 147.401 95.4885 147.768 95.3135 148.071C95.1384 148.374 94.8324 148.578 94.4854 148.624C94.2497 148.871 93.9214 149.007 93.5804 149H71.3202C70.2801 149 69.8783 148.001 70.1223 147.235C70.065 146.946 70.1046 146.646 70.235 146.382C71.0824 144.757 72.082 143.215 73.2203 141.779C71.9999 137.611 70.5429 128.854 69.5065 124.637C68.4288 120.251 67.7867 116.409 68.5677 113.326C69.2793 110.149 70.4654 107.097 72.0863 104.273C73.2841 102.125 74.4107 99.992 75.5372 97.8553C74.2605 97.9953 72.976 98.0518 71.692 98.0243C67.2872 97.8966 63.9339 95.4784 62.9501 91.0849C62.5334 89.0549 62.3582 86.9827 62.4281 84.9115L52.5072 86.038C48.3503 86.5074 42.2257 87.1646 38.3355 85.1706C34.4452 83.1767 33.3337 78.8508 32.9845 74.754C32.5226 69.3729 32.1884 63.9806 31.8054 58.6071C31.1658 58.6265 30.5257 58.5989 29.8903 58.5245C28.7975 58.393 27.4494 58.1827 26.8374 57.1351C26.5404 56.6622 26.4968 56.0731 26.7209 55.5617C26.0676 55.6105 25.4104 55.6443 24.7533 55.6481C23.3639 55.6481 21.3324 55.8621 20.2472 54.7656C19.3309 53.7855 19.5487 53.0007 20.281 52.3699Z" fill="#E5E4FF"/>
<path d="M95.3711 42.5879C95.0404 43.5518 94.2359 44.277 93.243 44.5061C92.25 44.7352 91.2091 44.436 90.4895 43.7144" stroke="#00203F" stroke-width="2.25306" stroke-linecap="round" stroke-linejoin="round"/>
<path d="M82.0146 45.2202C81.4476 46.542 78.8191 46.9701 77.8615 45.8999" stroke="#00203F" stroke-width="2.25306" stroke-linecap="round" stroke-linejoin="round"/>
<path d="M90.0205 51.6113C88.5185 53.8644 85.3755 54.1798 83.6106 52.2272" stroke="#00203F" stroke-width="2.25306" stroke-linecap="round" stroke-linejoin="round"/>
<path d="M168.337 61.9231L167.515 58.521" stroke="#00203F" stroke-width="2.25306" stroke-linecap="round" stroke-linejoin="round"/>
<path d="M174.908 64.7127C174.274 63.5862 172.419 61.1454 171.784 60.0264" stroke="#00203F" stroke-width="2.25306" stroke-linecap="round" stroke-linejoin="round"/>
<path d="M174.841 63.4474C176.444 63.4774 178.769 63.5825 180.372 63.6088" stroke="#00203F" stroke-width="2.25306" stroke-linecap="round" stroke-linejoin="round"/>
<path d="M31.7629 64.2642C32.8262 66.6892 33.8732 69.0211 34.9119 71.2339" stroke="#00203F" stroke-width="2.25306" stroke-linecap="round" stroke-linejoin="round"/>
<path d="M14.4533 17.1517C16.6929 21.236 24.9981 43.6828 26.1524 45.9701C26.7174 47.08 27.2806 48.236 27.8474 49.417" stroke="#00203F" stroke-width="2.25306" stroke-linecap="round" stroke-linejoin="round"/>
<path d="M34.584 45.9785C32.375 46.1952 30.3855 47.4078 29.1804 49.2717C28.9809 49.5926 28.7979 49.9235 28.6322 50.2631C27.9375 51.66 27.3855 53.1921 27.5056 54.7467C27.6258 56.3013 28.5721 57.8747 30.0629 58.3328C31.2795 58.7083 34.569 57.9573 34.3249 53.7628" stroke="#00203F" stroke-width="2.25306" stroke-linecap="round" stroke-linejoin="round"/>
<path d="M21.0545 50.147C21.2535 51.112 21.9707 51.8893 22.763 52.4751C24.3289 53.6279 25.6094 54.225 27.5508 54.1124" stroke="#00203F" stroke-width="2.25306" stroke-linecap="round" stroke-linejoin="round"/>
<path d="M21.6406 57.6533C22.4292 58.4306 25.5647 59.0577 28.2871 57.8674" stroke="#00203F" stroke-width="2.25306" stroke-linecap="round" stroke-linejoin="round"/>
<path d="M24.8808 62.7452C27.4042 63.0945 32.8341 63.0945 34.8018 60.019" stroke="#00203F" stroke-width="2.25306" stroke-linecap="round" stroke-linejoin="round"/>
<path d="M35.4508 63.5264C36.337 61.724 35.0152 58.6448 33.1151 57.9727" stroke="#00203F" stroke-width="2.25306" stroke-linecap="round" stroke-linejoin="round"/>
<path d="M21.1924 16.2079L25.2193 16.5753" stroke="#6E63FA" stroke-width="2.25306" stroke-linecap="round" stroke-linejoin="round"/>
<path d="M11.8902 6.51898L11.2373 1.48861" stroke="#6E63FA" stroke-width="2.25306" stroke-linecap="round" stroke-linejoin="round"/>
<path d="M18.3592 9.08088L21.4634 5.06902" stroke="#6E63FA" stroke-width="2.25306" stroke-linecap="round" stroke-linejoin="round"/>
<path d="M6.81934 9.17236L3.41098 6.28626" stroke="#6E63FA" stroke-width="2.25306" stroke-linecap="round" stroke-linejoin="round"/>
<path d="M6.44336 15.7168L1.99939 15.2722" stroke="#6E63FA" stroke-width="2.25306" stroke-linecap="round" stroke-linejoin="round"/>
<path d="M9.07227 20.728L5.95753 23.5897" stroke="#6E63FA" stroke-width="2.25306" stroke-linecap="round" stroke-linejoin="round"/>
<circle r="1.50204" transform="matrix(-1 0 0 1 13.203 13.8805)" fill="#00203F"/>
</svg>
