<svg width="25" height="24" viewBox="0 0 25 24" fill="none" xmlns="http://www.w3.org/2000/svg">
<path fill-rule="evenodd" clip-rule="evenodd" d="M20.1913 8.8419C19.2015 7.60854 17.8129 6.89502 16.502 6.89502C14.7678 6.89502 14.035 7.71894 12.8319 7.71894C11.5918 7.71894 10.6489 6.89622 9.14888 6.89622C7.67552 6.89622 6.10904 7.79118 5.11592 9.3207C3.7184 11.4716 3.95504 15.5185 6.22112 18.967C7.0316 20.2001 8.114 21.5869 9.52928 21.6001C10.7871 21.6116 11.143 20.7977 12.8497 20.7881C14.5566 20.7788 14.8794 21.6089 16.137 21.5972C17.5522 21.5837 18.6942 20.0482 19.5042 18.8149C20.0847 17.9314 20.301 17.485 20.7519 16.4864C17.4757 15.2485 16.9489 10.6191 20.1913 8.8419Z" fill="#111827"/>
<path fill-rule="evenodd" clip-rule="evenodd" d="M15.1866 5.51714C15.8166 4.70882 16.2952 3.5669 16.1214 2.40002C15.0923 2.47106 13.8884 3.12554 13.1857 3.97922C12.5478 4.75394 12.021 5.90282 12.226 7.01954C13.3494 7.05434 14.512 6.38306 15.1866 5.51714Z" fill="#111827"/>
</svg>
