<svg width="259" height="127" viewBox="0 0 259 127" fill="none" xmlns="http://www.w3.org/2000/svg">
<path d="M87.7971 21.8906L112.628 21.1105C112.961 21.1001 113.284 20.9923 113.557 20.8L133.469 6.78858C133.673 6.64501 133.906 6.54778 134.151 6.50372L170.342 0.0306931C172.252 -0.310883 173.163 2.29054 171.456 3.21439L139.861 20.3165C139.633 20.4398 139.436 20.6133 139.285 20.8238C139.134 21.0344 139.033 21.2764 138.99 21.5317L131.846 63.4592C131.53 65.3172 128.879 65.3683 128.491 63.5237L122.716 36.0601C122.652 35.7542 122.505 35.4718 122.291 35.2437C122.077 35.0155 121.805 34.8503 121.504 34.7661L87.3915 25.2431C85.5078 24.7171 85.8425 21.952 87.7971 21.8906Z" fill="black"/>
<ellipse cx="111.323" cy="46.7502" rx="9.4119" ry="9.41169" fill="black"/>
<path d="M220.325 100.673L215.144 103.477C215.107 103.498 215.074 103.526 215.05 103.561C215.025 103.595 215.008 103.635 215.001 103.677L213.83 110.551C213.778 110.856 213.344 110.865 213.28 110.562L212.333 106.059C212.322 106.009 212.298 105.963 212.263 105.925C212.228 105.888 212.184 105.861 212.134 105.847L206.541 104.285C206.232 104.199 206.287 103.746 206.608 103.736L210.679 103.608C210.734 103.606 210.786 103.588 210.831 103.557L214.096 101.26C214.13 101.236 214.168 101.22 214.208 101.213L220.142 100.151C220.456 100.095 220.605 100.522 220.325 100.673ZM210.465 109.355C210.262 109.355 210.062 109.315 209.874 109.238C209.687 109.16 209.517 109.046 209.374 108.903C209.231 108.76 209.117 108.59 209.039 108.402C208.962 108.215 208.922 108.014 208.922 107.812C208.922 107.403 209.085 107.01 209.374 106.721C209.663 106.431 210.056 106.269 210.465 106.269C210.875 106.269 211.267 106.431 211.556 106.721C211.846 107.01 212.008 107.403 212.008 107.812C212.008 108.015 211.968 108.215 211.891 108.402C211.813 108.59 211.7 108.76 211.556 108.903C211.413 109.046 211.243 109.16 211.056 109.238C210.868 109.315 210.668 109.355 210.465 109.355ZM222.153 93.9294L221.466 97.4949C220.883 96.1312 220.015 95.1424 218.858 94.5324C217.552 93.8432 216.023 93.4986 214.271 93.4986C212.519 93.4986 210.876 93.8216 209.34 94.4675C207.804 95.114 206.454 96.0113 205.292 97.1594C204.136 98.2975 203.214 99.6508 202.578 101.143C201.932 102.651 201.609 104.281 201.609 106.032C201.609 108.157 202.097 109.98 203.073 111.502C204.049 113.024 205.313 114.187 206.864 114.99C208.414 115.794 210.051 116.196 211.773 116.196C213.496 116.196 215.032 115.787 216.382 114.969C216.858 114.677 217.302 114.338 217.709 113.957L217.588 114.559C217.3 115.967 216.726 117.065 215.865 117.854C215.004 118.644 213.626 119.038 211.73 119.039C210.323 119.038 208.924 118.83 207.531 118.414C206.138 117.998 204.968 117.431 204.021 116.713L199.886 123.346C201.351 124.321 203.066 125.053 205.033 125.542C207 126.03 209.175 126.274 211.558 126.275C215.807 126.275 219.317 125.219 222.089 123.109C224.859 120.998 226.718 117.546 227.666 112.751L231.413 93.9294H222.153Z" fill="black"/>
<path d="M12.7932 100.188H25.9276L24.3925 107.779H11.3005L12.7932 100.188ZM10.0637 117.331H0L5.96997 87.4802H30.2347L28.6996 95.071H14.4989L10.0637 117.331Z" fill="black"/>
<path d="M37.6546 92.1284C35.9769 92.1284 34.6478 91.6877 33.6674 90.8063C32.6864 89.9252 32.1959 88.8449 32.1959 87.5655C32.1959 86.0589 32.7574 84.8081 33.8804 83.8129C35.0034 82.8178 36.4889 82.3202 38.3369 82.3202C40.014 82.3202 41.3431 82.7323 42.3241 83.5566C43.3051 84.3815 43.7954 85.4335 43.7951 86.7126C43.7951 88.3052 43.2336 89.6057 42.1106 90.6141C40.9874 91.6237 39.502 92.1284 37.6546 92.1284ZM27.1641 117.331L31.8123 94.0047H41.4071L36.7589 117.331H27.1641Z" fill="black"/>
<path d="M52.1959 117.757C50.2054 117.757 48.5138 117.388 47.1212 116.649C45.7281 115.91 44.7472 114.822 44.1787 113.386C43.6098 111.951 43.5245 110.224 43.9228 108.205L47.8035 88.7595H57.4412L53.5605 108.163C53.4179 108.959 53.5032 109.542 53.8164 109.911C54.1289 110.28 54.6122 110.465 55.2662 110.465C55.6639 110.465 56.0264 110.415 56.3537 110.316C56.6801 110.217 57.0283 110.082 57.3983 109.911L58.507 116.393C57.6256 116.876 56.6377 117.224 55.5433 117.437C54.4404 117.652 53.3194 117.759 52.1959 117.757ZM41.876 102.32L43.283 95.284H60.8955L59.488 102.32H41.876Z" fill="black"/>
<path d="M70.3192 117.331L63.6665 87.4802H73.9865L79.3595 112.768H72.7925L88.4854 87.4802H98.8054L80.2123 117.331H70.3192Z" fill="black"/>
<path d="M108.358 117.331L108.998 114.175L110.575 105.646L111.812 97.2027L112.452 94.0043H122.089L117.441 117.331H108.358ZM106.098 110.167C106.951 110.167 107.69 109.947 108.315 109.506C108.94 109.065 109.431 108.447 109.786 107.651C110.141 106.855 110.319 105.917 110.319 104.836C110.319 103.756 110.014 102.874 109.403 102.192C108.791 101.51 107.945 101.169 106.865 101.169C106.041 101.169 105.309 101.389 104.669 101.83C104.029 102.271 103.532 102.889 103.177 103.685C102.821 104.481 102.643 105.419 102.644 106.499C102.644 107.58 102.95 108.461 103.56 109.143C104.171 109.826 105.017 110.167 106.098 110.167ZM102.473 117.757C100.938 117.757 99.4309 117.338 97.9526 116.499C96.4743 115.661 95.259 114.438 94.3065 112.832C93.3541 111.226 92.8779 109.271 92.8779 106.969C92.8779 105.035 93.2049 103.259 93.8589 101.638C94.5129 100.018 95.4155 98.6033 96.5668 97.3949C97.7184 96.1868 99.0404 95.2486 100.533 94.5805C102.025 93.9124 103.61 93.5781 105.288 93.5779C107.107 93.5779 108.685 93.9476 110.021 94.687C111.357 95.4264 112.317 96.6702 112.9 98.4183C113.482 100.166 113.532 102.576 113.049 105.646C112.65 108.149 111.975 110.309 111.023 112.128C110.07 113.948 108.884 115.341 107.463 116.307C106.041 117.274 104.377 117.758 102.473 117.757Z" fill="black"/>
<path d="M141.919 93.5783C143.852 93.5783 145.508 93.9835 146.887 94.7939C148.265 95.6041 149.246 96.8123 149.829 98.4188C150.411 100.025 150.461 102.036 149.978 104.452L147.42 117.331H137.782L140.128 105.604C140.383 104.325 140.326 103.351 139.957 102.683C139.587 102.015 138.891 101.681 137.867 101.681C136.787 101.681 135.877 102.043 135.138 102.768C134.399 103.493 133.873 104.609 133.56 106.116L131.3 117.331H121.663L126.311 94.0047H135.394L134.072 100.529L132.963 98.7383C134.072 96.9477 135.444 95.64 137.079 94.8151C138.713 93.9906 140.326 93.5783 141.919 93.5783Z" fill="black"/>
<path d="M162.772 117.757C160.781 117.757 159.089 117.388 157.697 116.649C156.304 115.91 155.323 114.822 154.754 113.386C154.185 111.951 154.1 110.224 154.498 108.205L158.379 88.7595H168.017L164.136 108.163C163.994 108.959 164.079 109.542 164.392 109.911C164.705 110.28 165.188 110.465 165.842 110.465C166.24 110.465 166.602 110.415 166.929 110.316C167.256 110.217 167.604 110.082 167.974 109.911L169.083 116.393C168.201 116.876 167.213 117.224 166.119 117.437C165.016 117.652 163.895 117.759 162.772 117.757ZM152.452 102.32L153.859 95.284H171.471L170.064 102.32H152.452Z" fill="black"/>
<path d="M187.121 117.331L187.761 114.175L189.338 105.646L190.575 97.2027L191.214 94.0043H200.852L196.204 117.331H187.121ZM184.86 110.167C185.714 110.167 186.453 109.947 187.078 109.506C187.703 109.065 188.194 108.447 188.549 107.651C188.904 106.855 189.082 105.917 189.082 104.836C189.082 103.756 188.777 102.874 188.165 102.192C187.554 101.51 186.708 101.169 185.628 101.169C184.803 101.169 184.071 101.389 183.432 101.83C182.792 102.271 182.295 102.889 181.94 103.685C181.584 104.481 181.406 105.419 181.407 106.499C181.407 107.58 181.712 108.461 182.323 109.143C182.934 109.826 183.78 110.167 184.86 110.167ZM181.236 117.757C179.701 117.757 178.194 117.338 176.715 116.499C175.237 115.661 174.022 114.438 173.069 112.832C172.117 111.226 171.641 109.271 171.641 106.969C171.641 105.035 171.968 103.259 172.622 101.638C173.276 100.018 174.178 98.6033 175.33 97.3949C176.481 96.1868 177.803 95.2486 179.296 94.5805C180.788 93.9124 182.373 93.5781 184.05 93.5779C185.87 93.5779 187.447 93.9476 188.784 94.687C190.12 95.4264 191.08 96.6702 191.663 98.4183C192.245 100.166 192.295 102.576 191.811 105.646C191.413 108.149 190.738 110.309 189.786 112.128C188.833 113.948 187.646 115.341 186.225 116.307C184.803 117.274 183.14 117.758 181.236 117.757Z" fill="black"/>
<path d="M244.648 117.757C242.089 117.757 239.85 117.317 237.931 116.436C236.012 115.554 234.512 114.303 233.432 112.683C232.351 111.062 231.811 109.158 231.812 106.969C231.812 104.41 232.409 102.121 233.603 100.102C234.797 98.0847 236.481 96.4929 238.656 95.3269C240.831 94.1609 243.368 93.5779 246.268 93.5779C248.769 93.5779 250.902 94.0187 252.664 94.9004C254.427 95.7816 255.777 96.9897 256.716 98.5248C257.654 100.06 258.123 101.837 258.123 103.855C258.123 104.566 258.073 105.263 257.974 105.945C257.879 106.603 257.758 107.258 257.611 107.907H239.488L240.383 103.258H253.177L249.168 104.495C249.395 103.586 249.388 102.811 249.147 102.171C248.905 101.532 248.499 101.034 247.931 100.679C247.362 100.323 246.666 100.145 245.842 100.145C244.676 100.146 243.752 100.458 243.07 101.084C242.387 101.709 241.897 102.519 241.599 103.514C241.298 104.524 241.147 105.573 241.15 106.627C241.15 108.077 241.541 109.108 242.323 109.719C243.105 110.33 244.249 110.636 245.756 110.636C246.637 110.636 247.519 110.501 248.4 110.231C249.273 109.965 250.095 109.554 250.831 109.015L254.839 114.858C253.247 115.938 251.591 116.691 249.872 117.117C248.163 117.542 246.409 117.757 244.648 117.757Z" fill="black"/>
</svg>
