<svg width="39" height="15" viewBox="0 0 39 15" fill="none" xmlns="http://www.w3.org/2000/svg">
<g clip-path="url(#clip0_1_275)">
<path d="M9.25735 0C7.7343 0 6.27365 0.605025 5.1967 1.68198L1.68198 5.1967C0.605025 6.27365 0 7.7343 0 9.25735C0 12.429 2.57107 15 5.74265 15C7.2657 15 8.72635 14.3949 9.8033 13.318L12.2345 10.8869C12.2345 10.8868 12.2345 10.8869 12.2345 10.8869L19.318 3.8033C19.8324 3.28895 20.53 3 21.2574 3C22.4752 3 23.5076 3.7937 23.8655 4.89204L26.1011 2.65648C25.0813 1.05917 23.293 0 21.2574 0C19.7343 0 18.2736 0.605025 17.1967 1.68198L7.682 11.1967C7.16765 11.7111 6.47005 12 5.74265 12C4.22792 12 3 10.7721 3 9.25735C3 8.52995 3.28895 7.83235 3.8033 7.318L7.318 3.8033C7.83235 3.28895 8.52995 3 9.25735 3C10.4752 3 11.5076 3.79374 11.8656 4.89211L14.1011 2.65653C13.0813 1.0592 11.293 0 9.25735 0Z" fill="#435A39"/>
<path d="M19.682 11.1967C19.1677 11.7111 18.4701 12 17.7427 12C16.525 12 15.4927 11.2065 15.1346 10.1083L12.8991 12.3439C13.919 13.941 15.7072 15 17.7427 15C19.2657 15 20.7264 14.3949 21.8033 13.318L31.318 3.8033C31.8324 3.28895 32.53 3 33.2574 3C34.7721 3 36 4.22792 36 5.74265C36 6.47005 35.7111 7.16765 35.1967 7.682L31.682 11.1967C31.1677 11.7111 30.4701 12 29.7427 12C28.5249 12 27.4925 11.2063 27.1345 10.1081L24.899 12.3436C25.9189 13.9409 27.7071 15 29.7427 15C31.2657 15 32.7264 14.3949 33.8033 13.318L37.318 9.8033C38.395 8.72635 39 7.2657 39 5.74265C39 2.57107 36.429 0 33.2574 0C31.7343 0 30.2737 0.605025 29.1967 1.68198L19.682 11.1967Z" fill="#435A39"/>
</g>
<defs>
<clipPath id="clip0_1_275">
<rect width="39" height="15" fill="white"/>
</clipPath>
</defs>
</svg>
