<svg width="375" height="812" viewBox="0 0 375 812" fill="none" xmlns="http://www.w3.org/2000/svg">
<g clip-path="url(#clip0_137_635)">
<rect width="375" height="812" transform="translate(375 812) rotate(-180)" fill="#171917"/>
<g filter="url(#filter0_f_137_635)">
<path d="M805 468.76C-484.309 468.76 -1095.5 76.5583 -1095.5 -454.74C-1095.5 -986.038 83.2645 -912.09 515 -454.74C774.487 -179.857 2094.31 468.76 805 468.76Z" fill="url(#paint0_radial_137_635)"/>
</g>
<g filter="url(#filter1_f_137_635)">
<path d="M62.3689 630.659C86.3934 293.045 179.451 138.812 290.084 146.684C400.717 154.557 363.354 462.129 260.074 568.405C198 632.28 38.3444 968.273 62.3689 630.659Z" fill="url(#paint1_radial_137_635)"/>
</g>
<g filter="url(#filter2_f_137_635)">
<ellipse cx="257.332" cy="318.109" rx="311.19" ry="91.4884" transform="rotate(-17.1345 257.332 318.109)" fill="#7DDD84"/>
</g>
<g filter="url(#filter3_f_137_635)">
<path d="M169.266 642.854C129.839 605.291 99.5306 649.491 59.1721 634.307C-84.2002 580.367 87.4793 259.581 249.175 290.933C402.153 320.596 381.76 654.334 381.76 654.334C381.76 654.334 367 737.262 325.604 750.008C288.246 761.512 259.266 742.883 231.842 715.04C210.176 693.043 191.62 664.152 169.266 642.854Z" fill="#7FFA88" fill-opacity="0.26"/>
</g>
</g>
<defs>
<filter id="filter0_f_137_635" x="-1595.5" y="-1326" width="3456.96" height="2294.76" filterUnits="userSpaceOnUse" color-interpolation-filters="sRGB">
<feFlood flood-opacity="0" result="BackgroundImageFix"/>
<feBlend mode="normal" in="SourceGraphic" in2="BackgroundImageFix" result="shape"/>
<feGaussianBlur stdDeviation="250" result="effect1_foregroundBlur_137_635"/>
</filter>
<filter id="filter1_f_137_635" x="-71.3325" y="15.1382" width="559.839" height="894.97" filterUnits="userSpaceOnUse" color-interpolation-filters="sRGB">
<feFlood flood-opacity="0" result="BackgroundImageFix"/>
<feBlend mode="normal" in="SourceGraphic" in2="BackgroundImageFix" result="shape"/>
<feGaussianBlur stdDeviation="65.6298" result="effect1_foregroundBlur_137_635"/>
</filter>
<filter id="filter2_f_137_635" x="-341.284" y="-108.576" width="1197.23" height="853.371" filterUnits="userSpaceOnUse" color-interpolation-filters="sRGB">
<feFlood flood-opacity="0" result="BackgroundImageFix"/>
<feBlend mode="normal" in="SourceGraphic" in2="BackgroundImageFix" result="shape"/>
<feGaussianBlur stdDeviation="150" result="effect1_foregroundBlur_137_635"/>
</filter>
<filter id="filter3_f_137_635" x="-253.764" y="29.5038" width="895.705" height="983.238" filterUnits="userSpaceOnUse" color-interpolation-filters="sRGB">
<feFlood flood-opacity="0" result="BackgroundImageFix"/>
<feBlend mode="normal" in="SourceGraphic" in2="BackgroundImageFix" result="shape"/>
<feGaussianBlur stdDeviation="129.639" result="effect1_foregroundBlur_137_635"/>
</filter>
<radialGradient id="paint0_radial_137_635" cx="0" cy="0" r="1" gradientUnits="userSpaceOnUse" gradientTransform="translate(132.982 -539.24) rotate(90) scale(1008 1912.8)">
<stop/>
<stop offset="0.718" stop-color="#7FFA88"/>
</radialGradient>
<radialGradient id="paint1_radial_137_635" cx="0" cy="0" r="1" gradientUnits="userSpaceOnUse" gradientTransform="translate(284.788 469.623) rotate(-175.93) scale(210.428 502.147)">
<stop stop-color="#DEFFFD"/>
<stop offset="1" stop-color="#7FFA88"/>
</radialGradient>
<clipPath id="clip0_137_635">
<rect width="375" height="812" fill="white" transform="translate(375 812) rotate(-180)"/>
</clipPath>
</defs>
</svg>
