<svg width="211" height="104" viewBox="0 0 211 104" fill="none" xmlns="http://www.w3.org/2000/svg">
<path d="M71.7688 17.8943L92.0666 17.2566C92.3391 17.2481 92.6031 17.16 92.8261 17.0029L109.103 5.54933C109.269 5.43197 109.46 5.35249 109.66 5.31647L139.244 0.0251656C140.806 -0.254047 141.55 1.87246 140.155 2.62765L114.327 16.6076C114.141 16.7084 113.981 16.8502 113.857 17.0223C113.734 17.1944 113.651 17.3922 113.615 17.6009L107.776 51.8741C107.518 53.393 105.351 53.4347 105.034 51.9268L100.313 29.477C100.261 29.2269 100.14 28.9961 99.9656 28.8096C99.7909 28.6232 99.5684 28.4881 99.3224 28.4192L71.4372 20.6348C69.8974 20.2048 70.171 17.9445 71.7688 17.8943Z" fill="#0A0B0A"/>
<circle cx="91.3065" cy="38.5219" r="8" fill="#0A0B0A"/>
<path d="M180.102 82.2945L175.867 84.5866C175.837 84.6032 175.81 84.6265 175.79 84.6548C175.77 84.6831 175.756 84.7155 175.75 84.7498L174.793 90.3691C174.751 90.6183 174.395 90.6253 174.343 90.378L173.569 86.6969C173.561 86.6559 173.541 86.6181 173.512 86.5876C173.484 86.557 173.447 86.5348 173.407 86.5235L168.835 85.247C168.583 85.1766 168.627 84.806 168.889 84.7979L172.217 84.6932C172.262 84.6917 172.305 84.6774 172.342 84.6517L175.011 82.7737C175.038 82.7544 175.069 82.7413 175.102 82.7355L179.953 81.8677C180.209 81.8221 180.331 82.1707 180.102 82.2945ZM172.042 89.3913C171.877 89.3913 171.713 89.3587 171.56 89.2953C171.407 89.2319 171.268 89.139 171.15 89.0218C171.033 88.9047 170.94 88.7656 170.877 88.6125C170.814 88.4594 170.781 88.2954 170.781 88.1297C170.781 87.7952 170.914 87.4743 171.151 87.2378C171.387 87.0012 171.708 86.8683 172.043 86.8683C172.377 86.8683 172.698 87.0012 172.935 87.2378C173.171 87.4743 173.304 87.7952 173.304 88.1297C173.304 88.2954 173.271 88.4595 173.208 88.6125C173.145 88.7656 173.052 88.9047 172.935 89.0218C172.817 89.139 172.678 89.2319 172.525 89.2953C172.372 89.3587 172.208 89.3913 172.042 89.3913ZM181.597 76.7817L181.035 79.6963C180.558 78.5815 179.849 77.7733 178.904 77.2746C177.835 76.7113 176.585 76.4296 175.154 76.4296C173.722 76.4296 172.378 76.6936 171.123 77.2216C169.867 77.75 168.764 78.4835 167.814 79.422C166.869 80.3523 166.115 81.4586 165.595 82.6785C165.067 83.9109 164.803 85.2431 164.803 86.6749C164.803 88.4118 165.202 89.9021 166 91.1459C166.798 92.3904 167.831 93.341 169.098 93.9975C170.366 94.655 171.704 94.9837 173.112 94.9835C174.52 94.9835 175.776 94.649 176.879 93.9802C177.268 93.7419 177.631 93.4646 177.964 93.1528L177.865 93.6454C177.63 94.7958 177.161 95.6936 176.457 96.3388C175.753 96.9841 174.626 97.3068 173.077 97.3071C171.927 97.3068 170.783 97.1367 169.644 96.7968C168.506 96.4561 167.549 95.9925 166.775 95.406L163.395 100.828C164.592 101.625 165.994 102.224 167.602 102.623C169.21 103.022 170.988 103.222 172.936 103.222C176.409 103.222 179.279 102.359 181.544 100.634C183.809 98.9089 185.329 96.0865 186.103 92.1669L189.166 76.7817H181.597Z" fill="#0A0B0A"/>
<path d="M10.4577 81.8977H21.1942L19.9394 88.1024H9.23749L10.4577 81.8977ZM8.22644 95.9113H0L4.88009 71.5097H24.715L23.4602 77.7148H11.852L8.22644 95.9113Z" fill="#0A0B0A"/>
<path d="M30.7803 75.3093C29.4089 75.3093 28.3225 74.949 27.521 74.2285C26.7191 73.5082 26.3182 72.6252 26.3182 71.5793C26.3182 70.3478 26.7772 69.3253 27.6951 68.5118C28.6131 67.6984 29.8274 67.2916 31.338 67.2916C32.709 67.2916 33.7954 67.6285 34.5973 68.3023C35.3992 68.9766 35.8001 69.8366 35.7998 70.8822C35.7998 72.184 35.3409 73.2471 34.4229 74.0714C33.5047 74.8967 32.2905 75.3093 30.7803 75.3093ZM22.205 95.9108L26.0046 76.843H33.8478L30.0481 95.9108H22.205Z" fill="#0A0B0A"/>
<path d="M42.667 96.2595C41.0398 96.2595 39.6571 95.9574 38.5188 95.3532C37.38 94.7492 36.5782 93.8603 36.1134 92.6863C35.6484 91.5133 35.5787 90.1015 35.9043 88.451L39.0765 72.5555H46.9547L43.7825 88.4163C43.6659 89.0675 43.7356 89.5438 43.9916 89.8453C44.2471 90.1475 44.6422 90.2987 45.1768 90.2987C45.5019 90.2987 45.7982 90.258 46.0657 90.1766C46.3326 90.0954 46.6172 89.985 46.9197 89.8453L47.826 95.1441C47.1055 95.5392 46.2979 95.8239 45.4033 95.998C44.5017 96.1731 43.5854 96.2606 42.667 96.2595ZM34.2311 83.6406L35.3812 77.8889H49.7784L48.6279 83.6406H34.2311Z" fill="#0A0B0A"/>
<path d="M57.4816 95.9108L52.0435 71.5096H60.4794L64.8715 92.1808H59.5034L72.3314 71.5096H80.7673L65.5686 95.9108H57.4816Z" fill="#0A0B0A"/>
<path d="M88.576 95.9109L89.0991 93.3311L90.3886 86.3596L91.3997 79.4574L91.9224 76.8429H99.8006L96.0013 95.9109H88.576ZM86.7284 90.0548C87.4258 90.0548 88.0301 89.8747 88.5413 89.5145C89.0521 89.1542 89.453 88.6487 89.7438 87.9981C90.034 87.3476 90.1792 86.5807 90.1795 85.6974C90.1795 84.8141 89.9298 84.0936 89.4303 83.5359C88.9301 82.9784 88.2387 82.6996 87.3558 82.6993C86.6818 82.6993 86.0835 82.8794 85.5609 83.2397C85.0376 83.6004 84.6309 84.1059 84.3407 84.7561C84.0501 85.4068 83.9048 86.1736 83.9051 87.0567C83.9053 87.9398 84.155 88.6602 84.6543 89.2179C85.1537 89.7759 85.8451 90.0548 86.7284 90.0548ZM83.7657 96.2595C82.5105 96.2593 81.2788 95.9165 80.0704 95.2311C78.862 94.5458 77.8685 93.5465 77.0899 92.2334C76.3114 90.9202 75.9221 89.3225 75.9221 87.4403C75.9221 85.8601 76.1894 84.4076 76.724 83.0829C77.2586 81.7584 77.9965 80.6023 78.9376 79.6145C79.8789 78.6269 80.9596 77.86 82.1795 77.3139C83.3995 76.7677 84.6951 76.4945 86.0663 76.4943C87.5533 76.4943 88.8431 76.7965 89.9357 77.4009C91.0277 78.0054 91.8121 79.0221 92.2886 80.4511C92.7647 81.8801 92.8053 83.8496 92.4104 86.3596C92.0848 88.405 91.5329 90.1711 90.7545 91.6579C89.976 93.1457 89.0059 94.2845 87.8442 95.0744C86.6818 95.8647 85.3223 96.2598 83.7657 96.2595Z" fill="#0A0B0A"/>
<path d="M116.01 76.4946C117.59 76.4946 118.943 76.8258 120.071 77.4883C121.198 78.1505 121.999 79.1382 122.476 80.4514C122.952 81.7645 122.993 83.4086 122.598 85.3835L120.507 95.9113H112.628L114.546 86.3248C114.755 85.279 114.708 84.4831 114.406 83.9372C114.104 83.391 113.535 83.1179 112.698 83.1179C111.815 83.1179 111.071 83.4141 110.467 84.0065C109.863 84.5994 109.433 85.5116 109.177 86.7431L107.33 95.9113H99.4518L103.251 76.8432H110.676L109.596 82.1766L108.689 80.7126C109.595 79.2489 110.717 78.1799 112.053 77.5056C113.389 76.8316 114.708 76.4946 116.01 76.4946Z" fill="#0A0B0A"/>
<path d="M133.056 96.2595C131.429 96.2595 130.046 95.9574 128.908 95.3532C127.769 94.7492 126.967 93.8603 126.502 92.6863C126.037 91.5133 125.968 90.1015 126.293 88.451L129.465 72.5555H137.344L134.171 88.4163C134.055 89.0675 134.125 89.5438 134.381 89.8453C134.636 90.1475 135.031 90.2987 135.566 90.2987C135.891 90.2987 136.187 90.258 136.455 90.1766C136.721 90.0954 137.006 89.985 137.309 89.8453L138.215 95.1441C137.494 95.5392 136.687 95.8239 135.792 95.998C134.891 96.1731 133.974 96.2606 133.056 96.2595ZM124.62 83.6406L125.77 77.8889H140.167L139.017 83.6406H124.62Z" fill="#0A0B0A"/>
<path d="M152.96 95.9109L153.483 93.3311L154.772 86.3596L155.783 79.4574L156.306 76.8429H164.184L160.385 95.9109H152.96ZM151.112 90.0548C151.809 90.0548 152.414 89.8747 152.925 89.5145C153.436 89.1542 153.837 88.6487 154.128 87.9981C154.418 87.3476 154.563 86.5807 154.563 85.6974C154.563 84.8141 154.313 84.0936 153.814 83.5359C153.314 82.9782 152.623 82.6993 151.739 82.6993C151.065 82.6993 150.467 82.8794 149.944 83.2397C149.421 83.6004 149.015 84.1059 148.724 84.7561C148.434 85.4068 148.289 86.1736 148.289 87.0567C148.289 87.9398 148.539 88.6602 149.038 89.2179C149.537 89.7759 150.229 90.0548 151.112 90.0548ZM148.149 96.2595C146.894 96.2593 145.662 95.9165 144.454 95.2311C143.246 94.5458 142.252 93.5465 141.474 92.2334C140.695 90.9202 140.306 89.3225 140.306 87.4403C140.306 85.8601 140.573 84.4076 141.108 83.0829C141.642 81.7584 142.38 80.6023 143.321 79.6145C144.263 78.6269 145.343 77.86 146.563 77.3139C147.783 76.7677 149.079 76.4945 150.45 76.4943C151.937 76.4943 153.227 76.7965 154.319 77.4009C155.411 78.0054 156.196 79.0221 156.672 80.4511C157.148 81.8801 157.189 83.8496 156.794 86.3596C156.468 88.405 155.917 90.1711 155.138 91.6579C154.359 93.1457 153.389 94.2845 152.228 95.0744C151.065 95.8647 149.706 96.2598 148.149 96.2595Z" fill="#0A0B0A"/>
<path d="M199.985 96.2595C197.893 96.2595 196.063 95.8994 194.494 95.1791C192.925 94.4588 191.699 93.4362 190.816 92.1113C189.933 90.7868 189.492 89.2298 189.492 87.4403C189.492 85.3489 189.98 83.478 190.956 81.8277C191.932 80.1783 193.309 78.8771 195.087 77.924C196.864 76.9708 198.939 76.4943 201.309 76.4943C203.354 76.4943 205.097 76.8547 206.538 77.5754C207.979 78.2957 209.082 79.2833 209.849 80.5381C210.616 81.7932 211 83.2457 211 84.8955C211 85.4766 210.959 86.0459 210.878 86.6034C210.8 87.1416 210.701 87.6767 210.582 88.2072H195.767L196.499 84.4075H206.956L203.679 85.4186C203.865 84.6749 203.859 84.0416 203.662 83.5186C203.464 82.996 203.133 82.5894 202.668 82.2987C202.204 82.0081 201.634 81.8627 200.961 81.8627C200.007 81.863 199.252 82.1187 198.695 82.63C198.137 83.1412 197.736 83.8034 197.492 84.6167C197.246 85.4425 197.123 86.2999 197.126 87.1615C197.126 88.3465 197.445 89.189 198.085 89.6889C198.723 90.1884 199.659 90.4381 200.891 90.4381C201.611 90.4381 202.332 90.3277 203.052 90.1069C203.765 89.8894 204.437 89.5536 205.039 89.1135L208.316 93.8892C207.014 94.7723 205.661 95.388 204.255 95.7365C202.858 96.0839 201.424 96.2595 199.985 96.2595Z" fill="#0A0B0A"/>
</svg>
