<svg width="71" height="54" viewBox="0 0 71 54" fill="none" xmlns="http://www.w3.org/2000/svg">
<path d="M1.76879 17.8943L22.0666 17.2566C22.3391 17.2481 22.6031 17.16 22.8261 17.0029L39.1027 5.54933C39.2694 5.43197 39.4598 5.35249 39.6604 5.31647L69.2442 0.0251656C70.8056 -0.254047 71.5498 1.87246 70.1548 2.62765L44.3275 16.6076C44.1413 16.7084 43.9805 16.8502 43.8572 17.0223C43.7338 17.1944 43.6512 17.3922 43.6155 17.6009L37.7763 51.8741C37.5177 53.393 35.3508 53.4347 35.0337 51.9268L30.3132 29.477C30.2605 29.2269 30.1403 28.9961 29.9656 28.8096C29.7909 28.6232 29.5684 28.4881 29.3224 28.4192L1.4372 20.6348C-0.102556 20.2048 0.170998 17.9445 1.76879 17.8943Z" fill="#0A0B0A"/>
</svg>
