<svg width="127" height="129" viewBox="0 0 127 129" fill="none" xmlns="http://www.w3.org/2000/svg">
<circle cx="61.5" cy="61.5" r="61.5" fill="#D9D9D9" fill-opacity="0.41"/>
<g filter="url(#filter0_d_336_751)">
<circle cx="110.5" cy="111" r="12.5" fill="white"/>
</g>
<path d="M111 116.833H117M105 116.833H106.116C106.442 116.833 106.606 116.833 106.759 116.796C106.895 116.764 107.025 116.71 107.144 116.637C107.279 116.554 107.394 116.439 107.625 116.208L116 107.833C116.552 107.281 116.552 106.385 116 105.833C115.448 105.281 114.552 105.281 114 105.833L105.625 114.208C105.394 114.439 105.279 114.554 105.196 114.689C105.123 114.808 105.07 114.938 105.037 115.074C105 115.228 105 115.391 105 115.717V116.833Z" stroke="#4B5563" stroke-width="1.5" stroke-linecap="round" stroke-linejoin="round"/>
<path d="M61.5805 69.4058C50.4809 69.4058 41 71.1558 41 78.1558C41 85.1583 50.4217 86.9701 61.5805 86.9701C72.6801 86.9701 82.161 85.2227 82.161 78.2201C82.161 71.2175 72.7419 69.4058 61.5805 69.4058Z" fill="white"/>
<path opacity="0.4" d="M61.5805 62.7382C69.1416 62.7382 75.1997 56.6776 75.1997 49.1191C75.1997 41.5607 69.1416 35.5 61.5805 35.5C54.0221 35.5 47.9614 41.5607 47.9614 49.1191C47.9614 56.6776 54.0221 62.7382 61.5805 62.7382Z" fill="white"/>
<defs>
<filter id="filter0_d_336_751" x="94" y="95.5" width="33" height="33" filterUnits="userSpaceOnUse" color-interpolation-filters="sRGB">
<feFlood flood-opacity="0" result="BackgroundImageFix"/>
<feColorMatrix in="SourceAlpha" type="matrix" values="0 0 0 0 0 0 0 0 0 0 0 0 0 0 0 0 0 0 127 0" result="hardAlpha"/>
<feOffset dy="1"/>
<feGaussianBlur stdDeviation="2"/>
<feComposite in2="hardAlpha" operator="out"/>
<feColorMatrix type="matrix" values="0 0 0 0 0.101961 0 0 0 0 0.0588235 0 0 0 0 0.00392157 0 0 0 0.12 0"/>
<feBlend mode="normal" in2="BackgroundImageFix" result="effect1_dropShadow_336_751"/>
<feBlend mode="normal" in="SourceGraphic" in2="effect1_dropShadow_336_751" result="shape"/>
</filter>
</defs>
</svg>
