<svg width="20" height="20" viewBox="0 0 20 20" fill="none" xmlns="http://www.w3.org/2000/svg">
<path d="M7.81819 6.72704C7.30313 6.89872 6.89897 7.30289 6.72728 7.81794C6.2552 9.23419 6.2552 10.7653 6.72728 12.1816C6.89897 12.6966 7.30313 13.1008 7.81819 13.2725C9.23443 13.7446 10.7656 13.7446 12.1818 13.2725C12.6969 13.1008 13.101 12.6966 13.2727 12.1816C13.7448 10.7653 13.7448 9.23419 13.2727 7.81795C13.101 7.30289 12.6969 6.89872 12.1818 6.72704C10.7656 6.25496 9.23443 6.25496 7.81819 6.72704Z" fill="white"/>
<path fill-rule="evenodd" clip-rule="evenodd" d="M15.3147 1.47824C11.8411 0.485769 8.15893 0.485769 4.68528 1.47824C3.13415 1.92142 1.92167 3.1339 1.47848 4.68504C0.486012 8.15868 0.486015 11.8408 1.47848 15.3145C1.92166 16.8656 3.13415 18.0781 4.68529 18.5213C8.15893 19.5138 11.8411 19.5138 15.3147 18.5213C16.8659 18.0781 18.0784 16.8656 18.5215 15.3145C19.514 11.8408 19.514 8.15868 18.5215 4.68504C18.0783 3.1339 16.8659 1.92142 15.3147 1.47824ZM5.23473 3.40129C8.34926 2.51142 11.6508 2.51142 14.7653 3.40129C15.652 3.65464 16.3451 4.34776 16.5985 5.23448C17.4884 8.34901 17.4883 11.6505 16.5985 14.765C16.3451 15.6518 15.652 16.3449 14.7653 16.5982C11.6507 17.4881 8.34927 17.4881 5.23473 16.5982C4.34801 16.3449 3.65488 15.6518 3.40153 14.765C2.51167 11.6505 2.51166 8.34901 3.40153 5.23448C3.65488 4.34776 4.34801 3.65464 5.23473 3.40129Z" fill="white"/>
</svg>
